#!OML:ASF E:\VariousWalksJay\Project 1\Capture day 1\Session 1\Actor2.ASF
:FULLY-SPECIFIED
:DEGREES
947
root 4.81708 15.6076 6.95031 3.78652 11.4231 -5.58655
lowerback 5.96652 -4.83929 9.40898
upperback 3.10537 -5.92035 0.390212
thorax -0.996439 -2.88495 -4.39394
lowerneck -4.7364 -5.7271 -6.46306
upperneck 13.5062 -8.97886 13.0033
head 5.71713 -3.92494 4.5557
rclavicle -3.8266e-014 1.90833e-014
rhumerus -9.02117 16.311 -21.9117
rradius 100.816
rwrist -20.56
rhand 24.1298 -16.9942
rfingers 7.12502
rthumb 48.361 -39.0368
lclavicle -3.8266e-014 1.90833e-014
lhumerus -6.98905 -21.7598 48.2232
lradius 89.3958
lwrist 22.6326
lhand 14.8536 8.4271
lfingers 7.12502
lthumb 39.7138 33.7388
rfemur -63.7279 -2.6695 12.8512
rtibia 64.2125
rfoot 15.4057 -11.9044
rtoes 6.44517
lfemur 23.1073 14.7184 -6.19495
ltibia 16.3599
lfoot -32.0037 21.0294
ltoes -28.0302
948
root 4.83662 15.6421 6.82423 3.31281 11.1886 -5.75805
lowerback 5.67923 -4.79511 9.11298
upperback 2.87727 -5.90112 0.306395
thorax -1.05472 -2.88841 -4.3331
lowerneck -5.14231 -5.69007 -6.43064
upperneck 14.5703 -9.0376 12.968
head 6.12228 -3.90725 4.52929
rclavicle 5.79457e-014 -3.06128e-014
rhumerus -6.94531 15.3048 -19.1642
rradius 101.072
rwrist -21.315
rhand 24.831 -17.2004
rfingers 7.12502
rthumb 49.006 -38.9298
lclavicle 5.79457e-014 -3.06128e-014
lhumerus -4.85481 -20.9313 45.7534
lradius 90.9234
lwrist 23.522
lhand 15.2141 8.60876
lfingers 7.12502
lthumb 40.0532 33.8187
rfemur -64.414 -3.1078 13.568
rtibia 67.7691
rfoot 13.8561 -12.0814
rtoes 5.9397
lfemur 23.3267 14.6148 -6.39511
ltibia 16.0537
lfoot -32.3289 21.3884
ltoes -27.2257
949
root 4.8542 15.6756 6.70305 2.86256 10.9862 -5.90348
lowerback 5.39691 -4.75705 8.8249
upperback 2.63965 -5.88716 0.216467
thorax -1.12717 -2.89464 -4.2812
lowerneck -5.54807 -5.66329 -6.41935
upperneck 15.6237 -9.10904 12.9349
head 6.53056 -3.89688 4.50785
rclavicle 5.9536e-014 -2.98177e-014
rhumerus -4.97254 14.2657 -16.5914
rradius 101.272
rwrist -22.0166
rhand 25.5471 -17.3805
rfingers 7.12502
rthumb 49.663 -38.7784
lclavicle 5.9536e-014 -2.98177e-014
lhumerus -2.69722 -20.0158 43.3945
lradius 92.3269
lwrist 24.343
lhand 15.5376 8.80323
lfingers 7.12502
lthumb 40.3575 33.9204
rfemur -65.0986 -3.55458 14.2189
rtibia 71.2334
rfoot 12.1677 -12.2717
rtoes 5.30395
lfemur 23.4915 14.5239 -6.57364
ltibia 15.8353
lfoot -32.6181 21.6591
ltoes -26.4852
950
root 4.87042 15.709 6.58676 2.44127 10.805 -6.03896
lowerback 5.11126 -4.72204 8.56405
upperback 2.39225 -5.87452 0.122978
thorax -1.21039 -2.90148 -4.24731
lowerneck -5.95421 -5.64708 -6.42425
upperneck 16.6611 -9.19215 12.8978
head 6.94022 -3.89379 4.48838
rclavicle 7.05686e-015 -2.10712e-014
rhumerus -3.11108 13.2077 -14.2013
rradius 101.432
rwrist -22.6681
rhand 26.2243 -17.5267
rfingers 7.12502
rthumb 50.2827 -38.5997
lclavicle 7.05686e-015 -2.10712e-014
lhumerus -0.548747 -19.024 41.1659
lradius 93.6222
lwrist 25.0433
lhand 15.8295 8.98724
lfingers 7.12502
lthumb 40.6319 34.0195
rfemur -65.7826 -4.01038 14.8338
rtibia 74.5439
rfoot 10.36 -12.4582
rtoes 4.54285
lfemur 23.609 14.443 -6.7186
ltibia 15.6835
lfoot -32.8508 21.8312
ltoes -25.8436
951
root 4.88573 15.7432 6.4753 2.05277 10.6327 -6.17641
lowerback 4.81697 -4.68763 8.34372
upperback 2.13523 -5.86005 0.0275808
thorax -1.302 -2.90732 -4.23778
lowerneck -6.3618 -5.63987 -6.43754
upperneck 17.6779 -9.28348 12.8506
head 7.34916 -3.8966 4.46753
rclavicle 4.09496e-014 1.03368e-014
rhumerus -1.36493 12.1382 -12.002
rradius 101.568
rwrist -23.2815
rhand 26.8276 -17.6411
rfingers 7.12502
rthumb 50.8336 -38.4149
lclavicle 4.09496e-014 1.03368e-014
lhumerus 1.56281 -17.967 39.079
lradius 94.8257
lwrist 25.5885
lhand 16.0877 9.13807
lfingers 7.12502
lthumb 40.8745 34.0942
rfemur -66.4672 -4.47082 15.4365
rtibia 77.6528
rfoot 8.45659 -12.6308
rtoes 3.66664
lfemur 23.6918 14.3726 -6.82354
ltibia 15.5692
lfoot -33.0099 21.905
ltoes -25.3204
952
root 4.90051 15.779 6.36858 1.69915 10.4581 -6.32221
lowerback 4.5114 -4.65249 8.16991
upperback 1.86949 -5.84226 -0.0690169
thorax -1.39996 -2.91144 -4.25563
lowerneck -6.77179 -5.63839 -6.4507
upperneck 18.6684 -9.37756 12.7886
head 7.75477 -3.90283 4.44246
rclavicle 2.0773e-014 8.74653e-015
rhumerus 0.265325 11.0588 -10.0013
rradius 101.692
rwrist -23.8771
rhand 27.3416 -17.7325
rfingers 7.12502
rthumb 51.3019 -38.2439
lclavicle 2.0773e-014 8.74653e-015
lhumerus 3.61538 -16.8545 37.1368
lradius 95.9533
lwrist 25.9681
lhand 16.3053 9.24011
lfingers 7.12502
lthumb 41.0789 34.1314
rfemur -67.1543 -4.92874 16.0419
rtibia 80.5258
rfoot 6.48289 -12.7835
rtoes 2.6803
lfemur 23.7564 14.3133 -6.88968
ltibia 15.4578
lfoot -33.0843 21.893
ltoes -24.9169
